ffmpeg version 4.2.7-0ubuntu0.1 Copyright (c) 2000-2022 the FFmpeg developers
  built with gcc 9 (Ubuntu 9.4.0-1ubuntu1~20.04.1)
  configuration: --prefix=/usr --extra-version=0ubuntu0.1 --toolchain=hardened --libdir=/usr/lib/x86_64-linux-gnu --incdir=/usr/include/x86_64-linux-gnu --arch=amd64 --enable-gpl --disable-stripping --enable-avresample --disable-filter=resample --enable-avisynth --enable-gnutls --enable-ladspa --enable-libaom --enable-libass --enable-libbluray --enable-libbs2b --enable-libcaca --enable-libcdio --enable-libcodec2 --enable-libflite --enable-libfontconfig --enable-libfreetype --enable-libfribidi --enable-libgme --enable-libgsm --enable-libjack --enable-libmp3lame --enable-libmysofa --enable-libopenjpeg --enable-libopenmpt --enable-libopus --enable-libpulse --enable-librsvg --enable-librubberband --enable-libshine --enable-libsnappy --enable-libsoxr --enable-libspeex --enable-libssh --enable-libtheora --enable-libtwolame --enable-libvidstab --enable-libvorbis --enable-libvpx --enable-libwavpack --enable-libwebp --enable-libx265 --enable-libxml2 --enable-libxvid --enable-libzmq --enable-libzvbi --enable-lv2 --enable-omx --enable-openal --enable-opencl --enable-opengl --enable-sdl2 --enable-libdc1394 --enable-libdrm --enable-libiec61883 --enable-nvenc --enable-chromaprint --enable-frei0r --enable-libx264 --enable-shared
  libavutil      56. 31.100 / 56. 31.100
  libavcodec     58. 54.100 / 58. 54.100
  libavformat    58. 29.100 / 58. 29.100
  libavdevice    58.  8.100 / 58.  8.100
  libavfilter     7. 57.100 /  7. 57.100
  libavresample   4.  0.  0 /  4.  0.  0
  libswscale      5.  5.100 /  5.  5.100
  libswresample   3.  5.100 /  3.  5.100
  libpostproc    55.  5.100 / 55.  5.100
Routing option strict to both codec and muxer layer
[h264 @ 0x55f3d30a9fc0] Reinit context to 1920x1088, pix_fmt: yuv420p
Input #0, mov,mp4,m4a,3gp,3g2,mj2, from '/var/www/html/project/media/video/original/IMG_9424.mov':
  Metadata:
    major_brand     : qt  
    minor_version   : 0
    compatible_brands: qt  
    creation_time   : 2024-09-19T19:30:20.000000Z
    com.apple.quicktime.location.accuracy.horizontal: 3.016469
    com.apple.quicktime.full-frame-rate-playback-intent: 0
    com.apple.quicktime.cinematic-video: 
    com.apple.quicktime.location.ISO6709: +44.4081+012.0248+009.607/
    com.apple.quicktime.make: Apple
    com.apple.quicktime.model: iPhone 14 Pro Max
    com.apple.quicktime.software: 18.0
    com.apple.quicktime.creationdate: 2024-09-19T13:32:28+0200
    com.apple.photos.originating.signature: AXObfF10D9DRtHHkizAcYyp2Rcyu
  Duration: 00:00:12.41, start: 0.000000, bitrate: 15181 kb/s
    Stream #0:0(und): Audio: aac (LC) (mp4a / 0x6134706D), 44100 Hz, stereo, fltp, 194 kb/s (default)
    Metadata:
      creation_time   : 2024-09-19T19:30:20.000000Z
      handler_name    : Core Media Audio
    Stream #0:1(und): Video: h264 (High), 1 reference frame (avc1 / 0x31637661), yuv420p(tv, bt709, left), 1920x1080 (1920x1088), 14972 kb/s, 29.98 fps, 29.97 tbr, 600 tbn, 1200 tbc (default)
    Metadata:
      creation_time   : 2024-09-19T19:30:20.000000Z
      handler_name    : Core Media Video
      encoder         : H.264
    Stream #0:2(und): Data: none (mebx / 0x7862656D), 2 kb/s (default)
    Metadata:
      creation_time   : 2024-09-19T19:30:20.000000Z
      handler_name    : Core Media Metadata
    Stream #0:3(und): Data: none (mebx / 0x7862656D), 0 kb/s (default)
    Metadata:
      creation_time   : 2024-09-19T19:30:20.000000Z
      handler_name    : Core Media Metadata
Input #1, png_pipe, from '/var/www/html/project/static/images/templates/logo.png':
  Duration: N/A, bitrate: N/A
    Stream #1:0: Video: png, 1 reference frame, rgba(pc), 1920x1080 [SAR 2835:2835 DAR 16:9], 25 tbr, 25 tbn, 25 tbc
[Parsed_scale_0 @ 0x55f3d30f6640] w:1280 h:720 flags:'bilinear' interl:0
[Parsed_scale_2 @ 0x55f3d30f7940] w:1280 h:720 flags:'bilinear' interl:0
Stream mapping:
  Stream #0:1 (h264) -> scale (graph 0)
  Stream #1:0 (png) -> scale (graph 0)
  overlay (graph 0) -> Stream #0:0 (libx264)
  Stream #0:0 -> #0:1 (aac (native) -> aac (native))
Press [q] to stop, [?] for help
[graph_1_in_0_0 @ 0x55f3d348ffc0] tb:1/44100 samplefmt:fltp samplerate:44100 chlayout:0x3
[h264 @ 0x55f3d3190b80] Reinit context to 1920x1088, pix_fmt: yuv420p
[Parsed_scale_0 @ 0x55f3d3113580] w:1280 h:720 flags:'bilinear' interl:0
[Parsed_scale_2 @ 0x55f3d310fc00] w:1280 h:720 flags:'bilinear' interl:0
[graph 0 input from stream 0:1 @ 0x55f3d3115d80] w:1920 h:1080 pixfmt:yuv420p tb:1/600 fr:30000/1001 sar:0/1 sws_param:flags=2
[graph 0 input from stream 1:0 @ 0x55f3d3116c00] w:1920 h:1080 pixfmt:rgba tb:1/25 fr:25/1 sar:2835/2835 sws_param:flags=2
[Parsed_scale_0 @ 0x55f3d3113580] w:1920 h:1080 fmt:yuv420p sar:0/1 -> w:1280 h:720 fmt:yuv420p sar:0/1 flags:0x2
[Parsed_setsar_1 @ 0x55f3d3110300] w:1280 h:720 sar:0/1 dar:16/9 -> sar:1/1 dar:16/9
[Parsed_scale_2 @ 0x55f3d310fc00] w:1920 h:1080 fmt:rgba sar:2835/2835 -> w:1280 h:720 fmt:yuva420p sar:1/1 flags:0x2
[Parsed_setsar_3 @ 0x55f3d31139c0] w:1280 h:720 sar:1/1 dar:16/9 -> sar:1/1 dar:16/9
[Parsed_overlay_4 @ 0x55f3d3115040] main w:1280 h:720 fmt:yuv420p overlay w:1280 h:720 fmt:yuva420p
[Parsed_overlay_4 @ 0x55f3d3115040] [framesync @ 0x55f3d31151a8] Selected 1/600 time base
[Parsed_overlay_4 @ 0x55f3d3115040] [framesync @ 0x55f3d31151a8] Sync level 2
[libx264 @ 0x55f3d30f8480] using SAR=1/1
[libx264 @ 0x55f3d30f8480] using cpu capabilities: MMX2 SSE2Fast SSSE3 SSE4.2 AVX FMA3 BMI2 AVX2
[libx264 @ 0x55f3d30f8480] profile High, level 3.1
[libx264 @ 0x55f3d30f8480] 264 - core 155 r2917 0a84d98 - H.264/MPEG-4 AVC codec - Copyleft 2003-2018 - http://www.videolan.org/x264.html - options: cabac=1 ref=1 deblock=1:0:0 analyse=0x3:0x113 me=hex subme=2 psy=1 psy_rd=1.00:0.00 mixed_ref=0 me_range=16 chroma_me=1 trellis=0 8x8dct=1 cqm=0 deadzone=21,11 fast_pskip=1 chroma_qp_offset=0 threads=22 lookahead_threads=5 sliced_threads=0 nr=0 decimate=1 interlaced=0 bluray_compat=0 constrained_intra=0 bframes=3 b_pyramid=2 b_adapt=1 b_bias=0 direct=1 weightb=1 open_gop=0 weightp=1 keyint=250 keyint_min=25 scenecut=40 intra_refresh=0 rc_lookahead=10 rc=crf mbtree=1 crf=18.0 qcomp=0.60 qpmin=0 qpmax=69 qpstep=4 ip_ratio=1.40 aq=1:1.00
Output #0, mp4, to '/var/www/html/project/media/video/watermarks/IMG_9424.mp4':
  Metadata:
    major_brand     : qt  
    minor_version   : 0
    compatible_brands: qt  
    com.apple.photos.originating.signature: AXObfF10D9DRtHHkizAcYyp2Rcyu
    com.apple.quicktime.location.accuracy.horizontal: 3.016469
    com.apple.quicktime.full-frame-rate-playback-intent: 0
    com.apple.quicktime.cinematic-video: 
    com.apple.quicktime.location.ISO6709: +44.4081+012.0248+009.607/
    com.apple.quicktime.make: Apple
    com.apple.quicktime.model: iPhone 14 Pro Max
    com.apple.quicktime.software: 18.0
    com.apple.quicktime.creationdate: 2024-09-19T13:32:28+0200
    encoder         : Lavf58.29.100
    Stream #0:0: Video: h264 (libx264), 1 reference frame (avc1 / 0x31637661), yuv420p, 1280x720 [SAR 1:1 DAR 16:9], q=-1--1, 29.97 fps, 30k tbn, 29.97 tbc (default)
    Metadata:
      encoder         : Lavc58.54.100 libx264
    Side data:
      cpb: bitrate max/min/avg: 0/0/0 buffer size: 0 vbv_delay: -1
    Stream #0:1(und): Audio: aac (LC) (mp4a / 0x6134706D), 44100 Hz, stereo, fltp, delay 1024, 128 kb/s (default)
    Metadata:
      creation_time   : 2024-09-19T19:30:20.000000Z
      handler_name    : Core Media Audio
      encoder         : Lavc58.54.100 aac
[Parsed_overlay_4 @ 0x55f3d3115040] [framesync @ 0x55f3d31151a8] Sync level 0
No more output streams to write to, finishing.
frame=  372 fps= 58 q=-1.0 Lsize=    8261kB time=00:00:12.42 bitrate=5447.4kbits/s speed=1.94x    
[AVIOContext @ 0x55f3d30a30c0] Statistics: 0 seeks, 13 writeouts
video:8052kB audio:195kB subtitle:0kB other streams:0kB global headers:0kB muxing overhead: 0.173976%
Input file #0 (/var/www/html/project/media/video/original/IMG_9424.mov):
  Input stream #0:0 (audio): 537 packets read (303749 bytes); 535 frames decoded (547776 samples); 
  Input stream #0:1 (video): 372 packets read (23220118 bytes); 372 frames decoded; 
  Input stream #0:2 (data): 0 packets read (0 bytes); 
  Input stream #0:3 (data): 0 packets read (0 bytes); 
  Total: 909 packets (23523867 bytes) demuxed
Input file #1 (/var/www/html/project/static/images/templates/logo.png):
  Input stream #1:0 (video): 1 packets read (111578 bytes); 1 frames decoded; 
  Total: 1 packets (111578 bytes) demuxed
Output file #0 (/var/www/html/project/media/video/watermarks/IMG_9424.mp4):
  Output stream #0:0 (video): 372 frames encoded; 372 packets muxed (8245036 bytes); 
  Output stream #0:1 (audio): 535 frames encoded (547776 samples); 536 packets muxed (199239 bytes); 
  Total: 908 packets (8444275 bytes) muxed
[AVIOContext @ 0x55f3d30ce040] Statistics: 2 seeks, 36 writeouts
[libx264 @ 0x55f3d30f8480] frame I:2     Avg QP:16.05  size: 62816
[libx264 @ 0x55f3d30f8480] frame P:124   Avg QP:19.21  size: 36897
[libx264 @ 0x55f3d30f8480] frame B:246   Avg QP:20.91  size: 14405
[libx264 @ 0x55f3d30f8480] consecutive B-frames:  5.1% 16.1% 12.1% 66.7%
[libx264 @ 0x55f3d30f8480] mb I  I16..4: 29.7% 28.4% 41.9%
[libx264 @ 0x55f3d30f8480] mb P  I16..4: 17.2% 14.3% 10.4%  P16..4: 24.8% 17.3% 11.8%  0.0%  0.0%    skip: 4.2%
[libx264 @ 0x55f3d30f8480] mb B  I16..4:  6.3%  4.0%  1.6%  B16..8: 27.0% 15.3%  3.0%  direct:11.2%  skip:31.6%  L0:39.4% L1:41.5% BI:19.1%
[libx264 @ 0x55f3d30f8480] 8x8 transform intra:33.8% inter:28.7%
[libx264 @ 0x55f3d30f8480] coded y,uvDC,uvAC intra: 40.0% 40.4% 14.2% inter: 23.3% 16.9% 1.4%
[libx264 @ 0x55f3d30f8480] i16 v,h,dc,p: 34% 41% 15%  9%
[libx264 @ 0x55f3d30f8480] i8 v,h,dc,ddl,ddr,vr,hd,vl,hu: 11% 42% 22%  2%  5%  3%  6%  2%  7%
[libx264 @ 0x55f3d30f8480] i4 v,h,dc,ddl,ddr,vr,hd,vl,hu: 15% 31% 14%  5%  7%  5% 10%  5%  8%
[libx264 @ 0x55f3d30f8480] i8c dc,h,v,p: 57% 27% 12%  4%
[libx264 @ 0x55f3d30f8480] Weighted P-Frames: Y:12.9% UV:3.2%
[libx264 @ 0x55f3d30f8480] kb/s:5313.62
[aac @ 0x55f3d30f4840] Qavg: 198.394
[AVIOContext @ 0x55f3d30ac000] Statistics: 35592692 bytes read, 696 seeks
[AVIOContext @ 0x55f3d30ebd00] Statistics: 111578 bytes read, 0 seeks
